<svg width="754" height="205" viewBox="0 0 754 205" fill="none" xmlns="http://www.w3.org/2000/svg">
<path d="M242.623 14.3298C290.9 14.3298 330.036 53.466 330.036 101.743C330.036 150.02 290.9 189.157 242.623 189.157C212.506 189.157 185.946 173.925 170.226 150.746H85.1426V150.692L85.1025 150.753L71.5449 137.195C70.2025 138.08 68.5944 138.595 66.8662 138.595C62.1661 138.595 58.3555 134.785 58.3555 130.085C58.3555 125.385 62.1662 121.575 66.8662 121.575C71.1181 121.575 74.6422 124.693 75.2754 128.767L89.9658 143.458L89.8496 143.633H165.882C164.14 140.448 162.59 137.142 161.248 133.732H138.595V75.3757H159.257C160.29 72.1065 161.51 68.9204 162.904 65.8298H138.416L121.575 82.6707L121.574 82.6697V82.6707H94.0098C92.644 85.5458 89.7131 87.5338 86.3184 87.5339C81.6183 87.5339 77.8076 83.7233 77.8076 79.0232C77.8077 74.3232 81.6184 70.5134 86.3184 70.5134C89.713 70.5135 92.6439 72.5007 94.0098 75.3757H116.712L133.604 58.4851V58.2712H166.769C181.849 32.0139 210.171 14.3298 242.623 14.3298ZM242.421 30.3025C201.976 30.3025 169.19 62.5241 169.189 102.271C169.189 142.018 201.976 174.24 242.421 174.24C282.865 174.24 315.652 142.018 315.652 102.271C315.652 62.5241 282.865 30.3025 242.421 30.3025ZM66.8662 126.437C64.8519 126.437 63.2188 128.07 63.2188 130.085C63.2188 132.099 64.8519 133.732 66.8662 133.732C68.8805 133.732 70.5137 132.099 70.5137 130.085C70.5136 128.071 68.8804 126.437 66.8662 126.437ZM133.732 133.732H87.5342L80.2402 126.437H133.732V133.732ZM145.89 126.437H158.746C156.444 118.606 155.21 110.319 155.21 101.743C155.21 95.1922 155.931 88.8098 157.297 82.6707H145.89V126.437ZM32.8252 104.554C36.2199 104.554 39.1507 106.542 40.5166 109.417H82.6709L89.9648 116.712H40.5166C39.1508 119.587 36.22 121.575 32.8252 121.575C28.1251 121.575 24.3154 117.764 24.3154 113.064C24.3155 108.364 28.1252 104.554 32.8252 104.554ZM32.8252 109.417C30.8109 109.417 29.1778 111.05 29.1777 113.064C29.1777 115.079 30.8109 116.712 32.8252 116.712C34.8395 116.712 36.4727 115.079 36.4727 113.064C36.4726 111.05 34.8394 109.417 32.8252 109.417ZM101.703 109.417H133.732V116.712H97.2598V116.328L96.9736 116.712L59.5723 82.6707L64.4346 75.3767L101.703 109.417ZM8.50977 87.5339C11.9044 87.5339 14.8352 89.5213 16.2012 92.3962H63.2188L70.5137 99.6912H16.2012C14.8353 102.566 11.9045 104.554 8.50977 104.554C3.80991 104.554 0 100.744 0 96.0437C8.54168e-05 91.3439 3.80996 87.5342 8.50977 87.5339ZM8.51074 92.3962C6.49649 92.3962 4.86338 94.0295 4.86328 96.0437C4.86328 98.058 6.49643 99.6912 8.51074 99.6912C10.5248 99.6909 12.1572 98.0579 12.1572 96.0437C12.1571 94.0296 10.5248 92.3965 8.51074 92.3962ZM133.731 99.6912H97.2588L89.9648 92.3962H133.731V99.6912ZM44.9824 70.5134C48.3769 70.5136 51.307 72.5009 52.6729 75.3757H64.4336L59.5713 82.6707H52.6729C51.307 85.5456 48.377 87.5338 44.9824 87.5339C40.2824 87.5339 36.4717 83.7233 36.4717 79.0232C36.4718 74.3232 40.2824 70.5134 44.9824 70.5134ZM44.9814 75.3757C42.9674 75.376 41.3351 77.0091 41.335 79.0232C41.335 81.0374 42.9673 82.6704 44.9814 82.6707C46.9958 82.6707 48.6289 81.0375 48.6289 79.0232C48.6288 77.009 46.9957 75.3757 44.9814 75.3757ZM86.3184 75.3757C84.3041 75.3757 82.671 77.009 82.6709 79.0232C82.6709 81.0375 84.3041 82.6707 86.3184 82.6707C88.3101 82.6705 89.929 81.0738 89.9648 79.0906V78.9568C89.9291 76.9735 88.3102 75.3759 86.3184 75.3757ZM69.2969 53.4929C73.9969 53.4929 77.8075 57.3027 77.8076 62.0027C77.8076 66.7028 73.9969 70.5134 69.2969 70.5134C64.5968 70.5134 60.7871 66.7027 60.7871 62.0027C60.7872 57.3027 64.5969 53.493 69.2969 53.4929ZM69.2969 58.3552C67.2827 58.3553 65.6495 59.9885 65.6494 62.0027C65.6494 64.017 67.2826 65.6501 69.2969 65.6501C71.3112 65.6501 72.9443 64.017 72.9443 62.0027C72.9442 59.9885 71.3111 58.3552 69.2969 58.3552ZM119.144 65.6501H77.8076V58.3552H126.438L119.144 65.6501Z" fill="url(#paint0_linear_125_43)"/>
<path d="M242.427 32.8279C278.841 32.8279 308.826 59.8591 312.713 94.6033H310.53C310.628 95.4505 310.71 96.3025 310.775 97.1589H308.6C308.667 98.0066 308.717 98.8592 308.751 99.7156H306.198V100.993H310.958C310.966 101.418 310.97 101.844 310.97 102.271C310.97 102.698 310.966 103.124 310.958 103.55H313.127C312.433 141.312 281.045 171.715 242.427 171.715C203.374 171.715 171.715 140.624 171.715 102.271C171.715 63.9187 203.374 32.8279 242.427 32.8279ZM242.427 34.1062C204.092 34.1062 173.017 64.6246 173.017 102.271C173.017 139.918 204.092 170.437 242.427 170.437C279.89 170.437 310.42 141.29 311.789 104.828H308.751C307.6 134.126 286.758 158.466 258.854 165.443C258.718 165.855 258.363 166.183 257.899 166.27L253.236 167.153C252.791 167.237 252.355 167.079 252.071 166.771C248.923 167.221 245.702 167.455 242.427 167.455C205.77 167.455 176.053 138.271 176.053 102.271C176.053 96.2675 176.879 90.4532 178.427 84.9324C178.094 84.7294 177.933 84.3218 178.062 83.9402L179.797 78.7966C179.928 78.4068 180.319 78.1724 180.719 78.2175C190.465 54.123 214.42 37.0887 242.427 37.0886C275.993 37.0886 303.741 61.5585 308.181 93.325H311.245C306.784 59.9062 277.673 34.1062 242.427 34.1062ZM242.427 34.9578C276.742 34.9578 305.168 59.7229 310.184 92.0466H308.907C303.903 60.41 276.044 36.197 242.427 36.197C205.268 36.1971 175.146 65.7794 175.146 102.271C175.146 138.763 205.268 168.345 242.427 168.345C278.275 168.345 307.575 140.813 309.597 106.105H310.86C308.837 141.497 278.972 169.585 242.427 169.585C204.572 169.585 173.884 139.447 173.884 102.271C173.884 65.0952 204.572 34.9578 242.427 34.9578ZM242.427 38.2878C214.952 38.2879 191.449 54.9897 181.871 78.6189C182.162 78.8324 182.295 79.2127 182.175 79.5701L180.439 84.7146C180.316 85.0801 179.965 85.3089 179.592 85.2986C178.081 90.7038 177.274 96.395 177.274 102.271C177.274 137.608 206.444 166.255 242.427 166.255C245.609 166.255 248.737 166.031 251.797 165.598C251.925 165.171 252.287 164.827 252.763 164.737L257.425 163.854C257.884 163.767 258.333 163.939 258.616 164.264C285.959 157.398 306.379 133.544 307.528 104.828H306.082C305.932 105.083 305.651 105.254 305.33 105.254H304.39C302.806 137.515 275.67 163.194 242.427 163.194C242.282 163.194 242.138 163.194 241.993 163.193V159.98C242.138 159.981 242.282 159.982 242.427 159.982C273.57 159.982 299.054 136.19 301.063 106.105H302.168C300.166 136.648 274.415 160.842 242.861 161.062V162.071C275.275 161.849 301.671 136.755 303.246 105.254H301.426C301.105 105.254 300.824 105.083 300.674 104.828H300.066C298.705 134.935 273.42 158.934 242.427 158.934L242.273 158.933L241.993 158.932V158.082L243.082 157.887C272.309 157.562 296.218 135.495 298.826 107.384H297.715C295.54 130.358 278.853 149.197 256.743 154.974L256.741 154.249L256.743 151.49C276.405 145.985 291.321 129.423 294.077 109.088H295.339C292.598 129.805 277.537 146.724 257.609 152.522V153.41C278.563 147.42 294.277 129.347 296.407 107.384H294.919C294.44 107.384 294.051 107.002 294.051 106.532V104.828H291.882L286.676 113.348H279.735V114.627H275.396V110.366H279.735V112.07H286.676L291.882 103.55H294.051V102.271H291.448L286.676 106.958H279.735V108.662H275.396V104.401H279.735V105.679H286.676L291.448 100.993H294.051V99.7156H279.735V101.42H275.396V97.1589H279.735V98.4373H294.051V97.1589H291.448L286.676 92.4724H279.735V94.1765H275.396V89.9167H279.735V91.1941H286.676L291.448 95.8806H294.051V94.6033H291.882L284.073 86.0818H279.735V87.7859H275.396V83.5261H279.735V84.8044H284.073L291.882 93.325H294.051V92.4724C294.051 92.0019 294.44 91.6208 294.919 91.6208H295.569C291.615 72.4906 277.219 57.0836 258.478 51.3884V52.281C276.179 57.7571 289.898 72.0509 294.295 89.9167H293.007C288.595 72.4404 275.037 58.5083 257.61 53.3035L257.609 52.4265L257.61 49.8025C277.495 55.3413 292.838 71.4884 296.896 91.6208H298.025C293.562 69.0204 275.166 51.3034 251.969 47.4382V48.5935H247.63V44.3328H247.633V43.698C274.785 45.995 296.757 66.0905 301.392 92.0466H300.272C295.91 68.0859 276.489 49.2502 251.969 45.3181V46.3796C275.771 50.2697 294.645 68.4691 299.116 91.6707C299.451 91.7888 299.69 92.103 299.69 92.4724V93.325H302.644C298.267 64.6778 273.2 42.6793 242.86 42.4714V41.3503C273.832 41.5587 299.412 64.0563 303.798 93.325H306.947C302.516 62.2233 275.318 38.2878 242.427 38.2878ZM242.427 39.2185C257.835 39.2185 271.977 44.5485 283.042 53.4343C283.464 53.2832 283.956 53.3611 284.312 53.6775L287.836 56.8035C288.203 57.129 288.328 57.619 288.2 58.0564C297.295 67.1361 303.611 78.9097 305.792 92.0466H304.594C302.425 79.2363 296.251 67.7561 287.377 58.8894C286.966 59.0174 286.499 58.9337 286.156 58.6296L282.633 55.5037C282.28 55.1907 282.15 54.7256 282.254 54.3015C271.398 45.5986 257.533 40.3787 242.427 40.3787C242.137 40.3787 241.848 40.3807 241.559 40.3845V41.3542L241.56 42.4138L241.622 42.4753C241.601 42.4756 241.58 42.4751 241.559 42.4753V43.4851C241.847 43.4811 242.137 43.4783 242.427 43.4783V44.5613C242.137 44.5613 241.847 44.563 241.559 44.5671V45.615C241.847 45.6108 242.137 45.6091 242.427 45.6091V46.6521C242.137 46.6521 241.847 46.6537 241.559 46.658V46.8894H240.962C241.544 46.9094 242.042 47.2513 242.279 47.739C242.328 47.7389 242.378 47.739 242.427 47.739V55.6238C242.427 56.4474 241.747 57.1149 240.908 57.115C240.069 57.115 239.39 56.4474 239.39 55.6238V48.3796C239.39 47.574 240.04 46.9176 240.854 46.8894H240.257V46.6921C240.04 46.7002 239.823 46.7091 239.607 46.7195V45.6755C239.823 45.6653 240.04 45.6561 240.257 45.6482V44.5994C240.04 44.6071 239.823 44.6157 239.607 44.6257V43.5427C239.823 43.5329 240.04 43.5239 240.257 43.5164V42.5076C240.233 42.5084 240.209 42.5087 240.185 42.5095L240.257 42.4158V40.4148C206.455 41.5382 179.403 68.8024 179.403 102.271C179.403 135.022 205.306 161.831 238.089 164.019V164.047H238.509C238.802 164.064 239.096 164.08 239.39 164.094V157.655H239.987C239.174 157.627 238.522 156.971 238.522 156.165V148.922C238.522 148.098 239.202 147.429 240.041 147.429C240.88 147.429 241.56 148.098 241.56 148.922V156.165C241.56 156.971 240.908 157.627 240.095 157.655H240.691V164.141C241.268 164.157 241.846 164.164 242.427 164.164C275.922 164.164 303.315 138.502 305.331 106.105H306.515C304.497 139.143 276.575 165.324 242.427 165.324C241.846 165.324 241.268 165.317 240.691 165.302V165.325H239.39V165.255C205.341 163.697 178.222 136.095 178.222 102.271C178.222 68.1614 205.802 40.3776 240.257 39.2537V39.2195H241.559V39.2244C241.848 39.2206 242.137 39.2185 242.427 39.2185ZM238.956 42.5652C206.94 44.3319 181.533 70.3878 181.533 102.271C181.533 133.576 206.027 159.263 237.221 161.857V160.844C206.595 158.254 182.561 133.019 182.561 102.271C182.561 74.0386 202.824 50.4541 229.848 44.7791V44.7576H229.947C231.342 44.4671 232.756 44.2243 234.185 44.031L234.187 49.0193H229.848V48.0291C228.819 48.2581 227.801 48.5144 226.795 48.7976L224.641 49.2302V49.45C202.075 56.7743 185.791 77.6553 185.791 102.271C185.791 126.571 201.658 147.231 223.772 154.803V155.312L233.316 157.23L238.089 158.082V158.776C208.25 156.598 184.729 132.132 184.729 102.271C184.73 75.2205 204.032 52.5973 229.848 46.9597V45.8865C203.438 51.5428 183.662 74.6389 183.662 102.271C183.662 132.711 207.66 157.646 238.089 159.827V160.912L238.088 161.924L238.089 163.048C205.852 160.861 180.392 134.486 180.392 102.271C180.392 69.7684 206.309 43.2102 238.956 41.4421V42.5652ZM224.641 51.948L224.638 51.949V52.8523L224.641 52.8513V54.156C207.652 60.2141 194.781 74.7027 191.272 92.4724H192.208C195.682 75.2041 208.162 61.114 224.641 55.1169V56.3757L224.638 56.3767V57.3972L224.641 57.3962V58.6101C211.512 63.773 201.253 74.4815 196.87 87.7859H210.324C210.324 87.3155 210.713 86.9343 211.192 86.9343H219.868C220.347 86.9343 220.736 87.3155 220.736 87.7859H227.677V89.0642H220.736C220.736 89.5348 220.347 89.9167 219.868 89.9167H211.192C210.713 89.9167 210.324 89.5348 210.324 89.0642H195.273C199.396 74.8419 210.01 63.3048 223.77 57.739V56.7107C208.389 62.7911 196.796 76.1657 193.433 92.4724H210.324C210.324 92.0019 210.713 91.6208 211.192 91.6208H219.868C220.347 91.6208 220.736 92.0019 220.736 92.4724H227.677V93.7507H220.736C220.736 94.2213 220.347 94.6033 219.868 94.6033H211.192C210.713 94.6033 210.324 94.2213 210.324 93.7507H189.77C192.888 75.0229 206.115 59.6332 223.77 53.1619V52.2527C204.57 59.1615 190.457 76.4274 188.446 97.1589H210.324C210.324 96.6884 210.713 96.3074 211.192 96.3074H219.868C220.347 96.3074 220.736 96.6884 220.736 97.1589H227.677V98.4373H220.736C220.736 98.9078 220.347 99.2888 219.868 99.2888H211.192C210.713 99.2888 210.324 98.9078 210.324 98.4373H188.338C188.246 99.7035 188.2 100.982 188.2 102.271C188.2 124.925 202.603 144.274 222.906 151.97V151.056C203.093 143.404 189.067 124.446 189.067 102.271C189.067 102.129 189.068 101.987 189.069 101.845H210.324C210.324 101.375 210.713 100.993 211.192 100.993H219.868C220.347 100.993 220.736 101.375 220.736 101.845H227.677V103.124H220.736C220.736 103.594 220.347 103.975 219.868 103.975H211.192C210.713 103.975 210.324 103.594 210.324 103.124H192.443C192.789 123.07 205.248 140.119 222.906 147.481V146.445C206.173 139.303 194.289 123.26 193.453 104.401H194.603C195.445 122.949 207.231 138.702 223.772 145.582L223.773 148.285L223.772 149.101C204.98 141.876 191.598 124.057 191.244 103.124H190.325C190.682 124.563 204.463 142.796 223.772 150.069V153.65C202.281 146.124 186.898 125.962 186.898 102.271C186.899 78.2631 202.697 57.8784 224.641 50.5964V51.948ZM235.92 67.0828H245.464V51.573H255.008V67.0828H272.028V108.918C272.028 122.82 265.554 133.951 254.14 138.856V153.395H244.596V141.323C243.128 141.488 241.609 141.572 240.04 141.572C238.33 141.572 236.666 141.477 235.052 141.29V153.395H226.376V139.193C215.274 134.898 208.155 124.867 208.155 109.753H221.657C221.657 122.271 227.681 128.635 240.04 128.635C252.503 128.635 258.319 119.976 258.319 108.918V79.9148H220.242V67.0828H227.243V51.573H235.92V67.0828ZM293.15 109.088C290.412 128.923 275.895 145.084 256.743 150.552V147.146C272.955 142.163 285.459 128.941 289.169 112.472L290.958 109.105C288.304 127.449 275.121 142.464 257.609 148.06V149.06C275.665 143.415 289.269 127.968 291.939 109.088H293.15ZM249.802 106.952C250.084 107.83 250.235 108.762 250.235 109.727C250.235 115.021 245.671 119.313 240.041 119.313C234.411 119.313 229.846 115.021 229.846 109.727C229.846 108.762 229.998 107.83 230.28 106.952V86.9343H249.802V106.952ZM299.69 103.55H300.559V102.271H299.69V103.55ZM306.198 103.55H309.696C309.704 103.124 309.708 102.698 309.708 102.271H306.198V103.55ZM300.066 99.7156C300.086 100.14 300.101 100.566 300.11 100.993H300.559V99.7156H300.066ZM299.893 97.1589C299.931 97.5836 299.965 98.0099 299.994 98.4373H300.674C300.824 98.1826 301.105 98.0115 301.426 98.0115H305.33C305.651 98.0115 305.932 98.1826 306.082 98.4373H307.499V97.1589H299.893ZM299.69 95.8806H309.397C309.356 95.4536 309.31 95.0278 309.26 94.6033H299.69V95.8806ZM257.61 54.2478C274.529 59.4011 287.691 72.94 292.06 89.9167H290.821C286.589 73.8839 274.314 61.0318 258.478 55.7625V56.7693C273.495 61.8775 285.199 73.9536 289.579 89.0593L287.533 86.4832C282.613 72.928 271.537 62.2422 257.61 57.6716L257.609 57.113L257.61 54.2478Z" fill="black"/>
<path d="M166.396 158.047C183.647 181.631 211.527 196.95 242.985 196.95C274.443 196.95 302.323 181.631 319.574 158.047H328.448C310.204 185.869 278.742 204.245 242.987 204.245C207.231 204.245 175.768 185.869 157.525 158.047H166.396ZM242.987 0C280.786 0.000163386 313.787 20.5375 331.445 51.0615H322.906C306.055 24.7405 276.557 7.29396 242.985 7.29395C209.413 7.29404 179.915 24.7405 163.064 51.0615H154.528C172.186 20.5373 205.187 0 242.987 0Z" fill="url(#paint1_linear_125_43)"/>
<path d="M240.831 179.234L240.272 179.214C240.205 179.212 240.17 179.244 240.167 179.311L240.016 183.63L238.201 183.567L238.372 178.677C238.382 178.413 238.486 178.19 238.682 178.01C238.88 177.825 239.239 177.743 239.762 177.761L240.881 177.8L240.831 179.234Z" fill="white"/>
<path d="M219.727 174.374L218.109 180.003L219.855 180.502L220.579 177.982L220.713 180.748L222.384 181.226L224.002 175.597L222.256 175.097L221.533 177.613L221.398 174.852L219.727 174.374Z" fill="white"/>
<path fill-rule="evenodd" clip-rule="evenodd" d="M208.774 169.892C208.611 169.858 208.421 169.881 208.204 169.962C207.774 170.122 207.426 170.487 207.161 171.055L206.15 173.218C205.884 173.786 205.828 174.287 205.981 174.718C206.058 174.936 206.163 175.096 206.294 175.199L209.306 176.601L211.786 171.293L208.774 169.892ZM209.055 171.29C209.082 171.232 209.124 171.216 209.183 171.244L209.694 171.482L208.106 174.881L207.594 174.643C207.536 174.615 207.52 174.573 207.548 174.515L209.055 171.29Z" fill="white"/>
<path d="M204.437 174.291L201.603 172.658L202.13 171.746L203.392 172.473L204.006 171.412L202.744 170.685L203.264 169.787L204.526 170.514L205.272 169.225L204.009 168.498L204.537 167.587L207.372 169.22L204.437 174.291Z" fill="white"/>
<path d="M198.409 170.705C197.971 170.421 197.723 170.147 197.667 169.884C197.611 169.625 197.658 169.382 197.805 169.156L198.482 168.115L200.006 169.102L199.427 169.99C199.391 170.046 199.399 170.091 199.454 170.126L199.846 170.381C199.9 170.416 199.945 170.405 199.981 170.349L201.924 167.365C201.957 167.313 201.948 167.27 201.893 167.235L201.501 166.981C201.446 166.946 201.403 166.954 201.37 167.006L200.786 167.902L199.263 166.915L199.945 165.866C200.09 165.645 200.292 165.506 200.552 165.451C200.816 165.395 201.167 165.509 201.605 165.793L202.935 166.655C203.375 166.94 203.623 167.214 203.676 167.476C203.734 167.736 203.62 168.086 203.336 168.523L201.616 171.165C201.328 171.607 201.054 171.855 200.791 171.908C200.53 171.966 200.178 171.852 199.738 171.566L198.409 170.705Z" fill="white"/>
<path d="M196.522 169.512L193.873 167.592L194.494 166.74L195.673 167.595L196.394 166.604L195.215 165.749L195.826 164.91L197.005 165.765L197.882 164.561L196.703 163.706L197.323 162.854L199.971 164.774L196.522 169.512Z" fill="white"/>
<path d="M193.454 159.76L189.76 164.311L191.171 165.451L192.825 163.414L191.865 166.012L193.216 167.103L196.91 162.552L195.498 161.412L193.847 163.446L194.804 160.851L193.454 159.76Z" fill="white"/>
<path d="M189.005 163.854L185.87 160.832L186.603 160.075L187.517 160.956L190.862 157.501L192.168 158.76L188.824 162.215L189.738 163.096L189.005 163.854Z" fill="white"/>
<path fill-rule="evenodd" clip-rule="evenodd" d="M183.28 158.214C182.924 157.832 182.75 157.507 182.76 157.238C182.771 156.971 182.969 156.659 183.353 156.302L183.477 156.186C183.813 155.874 184.08 155.703 184.277 155.674C184.47 155.646 184.743 155.769 185.099 156.043C184.851 155.67 184.748 155.387 184.792 155.196C184.835 155 184.93 154.834 185.077 154.698L185.981 153.856C186.286 153.572 186.488 153.341 186.585 153.163L187.824 154.488C187.712 154.681 187.496 154.925 187.178 155.221L186.267 156.068C186.237 156.096 186.23 156.131 186.245 156.173L186.653 156.61L188.34 155.041L189.579 156.366L185.286 160.36L183.28 158.214ZM184.442 157.766C184.393 157.812 184.39 157.857 184.434 157.905L184.819 158.317L185.933 157.281L185.548 156.869C185.504 156.822 185.458 156.821 185.412 156.864L184.442 157.766Z" fill="white"/>
<path fill-rule="evenodd" clip-rule="evenodd" d="M180.987 155.703L186.359 152.981L185.274 151.69L184.044 152.387L183.354 151.567L184.253 150.476L183.17 149.188L179.551 153.995L180.987 155.703ZM183.122 152.917L181.473 153.841L182.673 152.383L183.122 152.917Z" fill="white"/>
<path d="M178.322 152.534L177.204 151.106L180.696 148.384L179.799 147.238L180.932 146.355L182.947 148.928L178.322 152.534Z" fill="white"/>
<path d="M175.894 149.358L174.852 147.873L179.66 144.514L180.702 145.999L175.894 149.358Z" fill="white"/>
<path d="M174.416 147.267L175.641 146.504L174.761 145.099L179.443 144.243L177.296 140.814L176.076 141.574L176.872 142.845L172.25 143.809L174.416 147.267Z" fill="white"/>
<path d="M171.877 143.296L170.29 140.439L171.213 139.929L171.92 141.201L172.993 140.607L172.287 139.335L173.196 138.832L173.902 140.104L175.207 139.382L174.501 138.11L175.423 137.6L177.01 140.457L171.877 143.296Z" fill="white"/>
<path fill-rule="evenodd" clip-rule="evenodd" d="M173.706 134.102C173.598 133.975 173.434 133.877 173.213 133.808C172.776 133.67 172.276 133.743 171.717 134.028L169.585 135.112C169.026 135.396 168.672 135.756 168.527 136.19C168.454 136.409 168.437 136.599 168.476 136.761L169.985 139.716L175.214 137.057L173.706 134.102ZM173.064 135.377C173.122 135.347 173.164 135.361 173.194 135.419L173.45 135.92L170.101 137.623L169.844 137.121C169.815 137.064 169.829 137.021 169.887 136.992L173.064 135.377Z" fill="white"/>
<path fill-rule="evenodd" clip-rule="evenodd" d="M171.077 127.791C170.983 127.653 170.83 127.539 170.618 127.446C170.197 127.264 169.692 127.285 169.106 127.509L166.873 128.365C166.287 128.589 165.898 128.91 165.707 129.327C165.612 129.537 165.575 129.725 165.597 129.889L166.788 132.985L172.268 130.887L171.077 127.791ZM170.305 128.991C170.366 128.968 170.406 128.986 170.43 129.047L170.632 129.572L167.123 130.916L166.92 130.391C166.897 130.33 166.915 130.29 166.976 130.267L170.305 128.991Z" fill="white"/>
<path d="M165.044 128.191L164.483 126.468L170.064 124.658L170.626 126.382L165.044 128.191Z" fill="white"/>
<path d="M163.4 122.848C163.265 122.344 163.265 121.975 163.4 121.743C163.535 121.512 163.857 121.329 164.364 121.194L165.238 120.96L165.708 122.71L164.651 122.993C164.587 123.01 164.562 123.049 164.579 123.112L164.7 123.563C164.717 123.625 164.758 123.647 164.822 123.63L168.268 122.709C168.326 122.693 168.349 122.654 168.332 122.592L168.211 122.141C168.194 122.078 168.155 122.056 168.097 122.072L166.981 122.37L167.066 122.687L166.431 122.856L165.876 120.789L168.72 120.029L168.856 120.535L168.368 120.849C168.723 120.81 168.989 121.092 169.167 121.694L169.48 122.86C169.616 123.366 169.618 123.735 169.484 123.964C169.35 124.197 169.029 124.381 168.525 124.516L165.475 125.331C164.968 125.467 164.597 125.468 164.364 125.333C164.131 125.202 163.947 124.882 163.811 124.376L163.4 122.848Z" fill="white"/>
<path d="M162.941 120.823L162.532 119.058L168.251 117.74L168.66 119.506L162.941 120.823Z" fill="white"/>
<path d="M162.349 118.382L161.592 114.099L162.631 113.916L162.852 115.165L167.593 114.331L167.908 116.116L163.168 116.95L163.388 118.199L162.349 118.382Z" fill="white"/>
<path fill-rule="evenodd" clip-rule="evenodd" d="M161.369 112.619L167.361 113.256L167.155 111.583L165.743 111.5L165.612 110.437L166.962 110.01L166.756 108.342L161.097 110.407L161.369 112.619ZM164.681 111.443L162.794 111.322L164.596 110.751L164.681 111.443Z" fill="white"/>
<path d="M160.912 108.459L160.785 106.651L165.206 106.343L165.104 104.892L166.538 104.792L166.767 108.051L160.912 108.459Z" fill="white"/>
<path d="M160.781 99.2279C160.8 98.7071 160.907 98.3542 161.105 98.1713C161.298 97.9897 161.531 97.9043 161.801 97.9137L163.044 97.957L162.981 99.7682L161.92 99.7312C161.853 99.7289 161.819 99.7592 161.816 99.8238L161.8 100.291C161.798 100.355 161.83 100.388 161.897 100.39L165.461 100.514C165.523 100.516 165.554 100.486 165.556 100.421L165.573 99.9546C165.575 99.8901 165.546 99.8575 165.484 99.8555L164.414 99.8181L164.477 98.0069L165.729 98.0506C165.994 98.0597 166.218 98.1612 166.398 98.3557C166.583 98.5518 166.665 98.9115 166.647 99.4323L166.592 101.013C166.573 101.537 166.466 101.89 166.268 102.07C166.074 102.254 165.715 102.336 165.193 102.318L162.038 102.208C161.51 102.19 161.155 102.083 160.975 101.885C160.79 101.692 160.708 101.332 160.726 100.809L160.781 99.2279Z" fill="white"/>
<path d="M161.171 92.7719L165.672 93.1648C166.192 93.2103 166.538 93.3342 166.709 93.5381C166.883 93.7435 166.946 94.1069 166.9 94.6262L166.762 96.202C166.716 96.7237 166.591 97.0706 166.384 97.2402C166.181 97.4141 165.818 97.4775 165.297 97.432L160.797 97.0391L160.956 95.2339L165.647 95.6435C165.715 95.6494 165.75 95.6196 165.756 95.5526L165.796 95.0912C165.802 95.027 165.772 94.9927 165.705 94.9869L161.013 94.5773L161.171 92.7719Z" fill="white"/>
<path fill-rule="evenodd" clip-rule="evenodd" d="M161.658 89.0137C161.73 88.4977 161.874 88.1578 162.09 87.9967C162.304 87.8366 162.673 87.7939 163.192 87.8667L163.361 87.8904C163.815 87.9541 164.116 88.0535 164.263 88.1885C164.406 88.3202 164.482 88.6099 164.492 89.0577C164.627 88.6303 164.783 88.373 164.959 88.2861C165.138 88.1969 165.328 88.1662 165.526 88.194L166.751 88.3658C167.164 88.4237 167.471 88.435 167.671 88.398L167.418 90.1923C167.198 90.2264 166.872 90.2128 166.441 90.1524L165.208 89.9795C165.168 89.9738 165.136 89.9905 165.112 90.0284L165.029 90.62L167.313 90.9404L167.06 92.7347L161.248 91.9197L161.658 89.0137ZM162.737 89.633C162.67 89.6237 162.633 89.6502 162.625 89.7142L162.546 90.2719L164.053 90.4833L164.132 89.9255C164.141 89.8616 164.112 89.8258 164.05 89.817L162.737 89.633Z" fill="white"/>
<path fill-rule="evenodd" clip-rule="evenodd" d="M162.762 83.5805C162.888 83.0749 163.067 82.7519 163.298 82.6142C163.528 82.4773 163.899 82.4733 164.408 82.5999L164.573 82.641C165.019 82.7517 165.307 82.8819 165.439 83.0317C165.568 83.1773 165.613 83.4735 165.576 83.9201C165.755 83.5089 165.937 83.2694 166.121 83.2013C166.309 83.1312 166.5 83.1205 166.695 83.1689L167.895 83.4674C168.3 83.5681 168.604 83.6114 168.807 83.5953L168.367 85.3535C168.145 85.3646 167.822 85.3169 167.4 85.2118L166.192 84.9114C166.152 84.9014 166.119 84.9148 166.091 84.95L165.946 85.5297L168.184 86.0865L167.745 87.8448L162.05 86.428L162.762 83.5805ZM163.77 84.309C163.705 84.2928 163.666 84.3154 163.65 84.378L163.513 84.9245L164.99 85.2919L165.127 84.7454C165.142 84.6828 165.118 84.6442 165.057 84.629L163.77 84.309Z" fill="white"/>
<path d="M163.244 81.4166L164.146 78.2769L165.16 78.5672L164.759 79.9648L165.939 80.3026L166.341 78.9048L167.34 79.1906L166.938 80.5884L168.372 80.9987L168.773 79.6009L169.788 79.8912L168.885 83.0308L163.244 81.4166Z" fill="white"/>
<path d="M171.391 75.2073L165.842 73.3007L165.251 75.0139L167.735 75.8674L164.96 75.8564L164.394 77.4963L169.943 79.4029L170.535 77.6896L168.054 76.8374L170.826 76.8472L171.391 75.2073Z" fill="white"/>
<path d="M167.202 69.7556C167.398 69.2725 167.62 68.9774 167.868 68.873C168.113 68.7685 168.36 68.7677 168.611 68.8688L169.764 69.3336L169.084 71.014L168.099 70.6171C168.037 70.592 167.995 70.6089 167.971 70.6688L167.795 71.1018C167.771 71.1617 167.79 71.2032 167.852 71.2283L171.159 72.5612C171.216 72.5845 171.256 72.5666 171.28 72.5067L171.456 72.0737C171.48 72.0138 171.463 71.9733 171.406 71.9501L170.413 71.5498L171.094 69.8696L172.255 70.3379C172.501 70.4369 172.676 70.6083 172.779 70.8528C172.885 71.1 172.84 71.4663 172.644 71.9494L172.05 73.4161C171.853 73.9017 171.632 74.1968 171.384 74.2984C171.139 74.4055 170.773 74.3602 170.289 74.165L167.361 72.985C166.872 72.7877 166.575 72.5657 166.473 72.3188C166.366 72.074 166.412 71.708 166.608 71.2223L167.202 69.7556Z" fill="white"/>
<path d="M171.688 67.9619L168.103 67.6367L168.911 66.1216L170.898 66.5128L169.46 65.0898L170.267 63.5758L172.543 66.3584L174.795 67.5532L173.94 69.1568L171.688 67.9619Z" fill="white"/>
<path d="M232.139 182.998C231.622 182.926 231.281 182.782 231.12 182.567C230.959 182.356 230.898 182.116 230.936 181.849L231.109 180.62L232.907 180.872L232.76 181.921C232.75 181.988 232.777 182.025 232.841 182.034L233.305 182.099C233.369 182.108 233.404 182.079 233.414 182.013L233.91 178.489C233.919 178.428 233.892 178.394 233.828 178.385L233.364 178.32C233.3 178.311 233.265 178.336 233.256 178.398L233.107 179.456L231.308 179.203L231.483 177.965C231.52 177.704 231.644 177.492 231.857 177.334C232.072 177.171 232.439 177.127 232.956 177.199L234.526 177.419C235.046 177.492 235.386 177.636 235.545 177.851C235.709 178.062 235.753 178.427 235.68 178.943L235.241 182.063C235.167 182.585 235.024 182.926 234.808 183.084C234.596 183.247 234.229 183.291 233.709 183.218L232.139 182.998Z" fill="white"/>
<path fill-rule="evenodd" clip-rule="evenodd" d="M227.043 182.23C226.53 182.13 226.198 181.969 226.048 181.745C225.898 181.526 225.875 181.157 225.975 180.64L226.578 177.548C226.678 177.036 226.837 176.705 227.058 176.558C227.281 176.406 227.65 176.381 228.163 176.481L229.719 176.783C230.234 176.883 230.567 177.044 230.714 177.267C230.866 177.487 230.892 177.853 230.792 178.365L230.19 181.458C230.089 181.974 229.927 182.308 229.704 182.455C229.484 182.606 229.115 182.631 228.599 182.531L227.043 182.23ZM227.718 181.194C227.706 181.255 227.731 181.29 227.795 181.303L228.254 181.392C228.318 181.404 228.355 181.38 228.366 181.32L229.047 177.827C229.06 177.761 229.035 177.722 228.972 177.71L228.512 177.621C228.448 177.609 228.411 177.635 228.398 177.701L227.718 181.194Z" fill="white"/>
<path d="M224.99 181.79L223.221 181.383L224.541 175.677L226.311 176.084L224.99 181.79Z" fill="white"/>
<path d="M178.373 58.5387L178.701 58.0873C178.741 58.0331 178.734 57.9861 178.68 57.9466L175.176 55.4063L176.243 53.9404L180.21 56.8163C180.425 56.9718 180.552 57.1825 180.592 57.4456C180.634 57.7121 180.502 58.0552 180.194 58.4779L179.536 59.3818L178.373 58.5387Z" fill="white"/>
<path d="M179.803 49.3212C180.131 48.9162 180.43 48.6988 180.698 48.6716C180.962 48.6428 181.2 48.7143 181.41 48.884L182.376 49.665L181.233 51.0733L180.408 50.4067C180.356 50.3645 180.311 50.3683 180.27 50.4184L179.975 50.7815C179.934 50.8316 179.94 50.8769 179.993 50.919L182.764 53.1584C182.812 53.1974 182.856 53.1918 182.896 53.1417L183.191 52.7786C183.232 52.7285 183.228 52.685 183.18 52.6461L182.347 51.9737L183.491 50.5652L184.464 51.3521C184.67 51.5184 184.787 51.7336 184.814 51.9973C184.844 52.2649 184.692 52.6015 184.364 53.0066L183.366 54.2359C183.036 54.6429 182.737 54.8605 182.47 54.8855C182.205 54.9163 181.868 54.7661 181.462 54.4382L179.008 52.4556C178.598 52.1244 178.379 51.8255 178.354 51.5595C178.323 51.2944 178.474 50.9576 178.805 50.5504L179.803 49.3212Z" fill="white"/>
<path fill-rule="evenodd" clip-rule="evenodd" d="M183.365 45.4128C183.728 45.0378 184.045 44.8472 184.314 44.8434C184.58 44.8377 184.903 45.0192 185.283 45.3849L187.554 47.5733C187.929 47.9354 188.121 48.2494 188.124 48.5145C188.13 48.7835 187.95 49.1058 187.587 49.4808L186.486 50.6186C186.121 50.9953 185.805 51.1861 185.537 51.1878C185.269 51.1954 184.947 51.0167 184.572 50.6546L182.3 48.4662C181.921 48.1005 181.729 47.7837 181.727 47.5166C181.719 47.2498 181.899 46.9273 182.264 46.5506L183.365 45.4128ZM183.868 46.5413C183.823 46.4983 183.78 46.5 183.735 46.5465L183.41 46.8824C183.365 46.9289 183.365 46.9726 183.409 47.0155L185.974 49.4873C186.023 49.5339 186.068 49.5341 186.113 49.4878L186.439 49.1517C186.484 49.1053 186.482 49.0598 186.433 49.0131L183.868 46.5413Z" fill="white"/>
<path d="M184.961 43.8446L186.289 42.6088L190.291 46.8917L188.963 48.1275L184.961 43.8446Z" fill="white"/>
<path d="M194.024 43.5489L190.252 39.0627L188.86 40.2276L190.549 42.2356L188.176 40.8002L186.845 41.9152L190.617 46.4012L192.008 45.2363L190.322 43.2312L192.692 44.6636L194.024 43.5489Z" fill="white"/>
<path fill-rule="evenodd" clip-rule="evenodd" d="M201.932 37.7258C202.049 37.6077 202.133 37.436 202.183 37.2107C202.283 36.7639 202.165 36.2735 201.833 35.7424L200.565 33.7181C200.232 33.1867 199.842 32.8669 199.396 32.7601C199.171 32.7064 198.98 32.7062 198.822 32.7596L196.003 34.5169L199.113 39.4833L201.932 37.7258ZM200.604 37.1993C200.638 37.254 200.628 37.2974 200.573 37.3317L200.094 37.6301L198.102 34.4496L198.581 34.1511C198.636 34.1168 198.679 34.1271 198.714 34.1817L200.604 37.1993Z" fill="white"/>
<path d="M200.397 31.7679L203.26 30.1845L203.771 31.1052L202.496 31.8103L203.092 32.8817L204.366 32.1768L204.87 33.0838L203.596 33.7886L204.319 35.0904L205.593 34.3856L206.105 35.3063L203.242 36.8897L200.397 31.7679Z" fill="white"/>
<path d="M206.462 28.4531C206.928 28.2164 207.289 28.1391 207.546 28.2231C207.798 28.304 207.986 28.4657 208.109 28.7061L208.674 29.8117L207.055 30.6345L206.573 29.6907C206.543 29.6308 206.5 29.6158 206.442 29.6451L206.025 29.8572C205.967 29.8864 205.954 29.93 205.985 29.9899L207.604 33.1604C207.632 33.2155 207.674 33.2282 207.731 33.199L208.148 32.9869C208.206 32.9576 208.221 32.9163 208.192 32.8612L207.706 31.9091L209.325 31.0865L209.893 32.2002C210.014 32.4359 210.033 32.68 209.95 32.9319C209.868 33.1881 209.592 33.4343 209.127 33.6709L207.714 34.3892C207.247 34.6269 206.885 34.7044 206.632 34.619C206.376 34.5393 206.13 34.2657 205.893 33.8014L204.459 30.9943C204.22 30.5252 204.142 30.1633 204.227 29.9102C204.307 29.6554 204.582 29.409 205.05 29.1712L206.462 28.4531Z" fill="white"/>
<path d="M208.484 27.5341L211.475 26.2056L211.904 27.1674L210.573 27.759L211.072 28.8782L212.403 28.2866L212.826 29.2341L211.495 29.8255L212.101 31.1851L213.433 30.5937L213.862 31.5554L210.872 32.8841L208.484 27.5341Z" fill="white"/>
<path d="M218.526 29.8067L216.423 24.3395L214.728 24.9889L215.669 27.4363L213.894 25.3081L212.271 25.9298L214.374 31.3969L216.07 30.7476L215.13 28.3039L216.904 30.4283L218.526 29.8067Z" fill="white"/>
<path d="M217.387 23.991L221.597 22.8654L221.87 23.8822L220.642 24.2106L221.888 28.8503L220.134 29.3193L218.888 24.6796L217.66 25.0079L217.387 23.991Z" fill="white"/>
<path fill-rule="evenodd" clip-rule="evenodd" d="M225.067 22.0199C225.578 21.9114 225.947 21.9302 226.173 22.0774C226.397 22.2236 226.563 22.5543 226.672 23.0665L226.707 23.2327C226.803 23.6806 226.812 23.9962 226.735 24.1806C226.66 24.3593 226.413 24.5301 225.995 24.6928C226.444 24.6728 226.739 24.7314 226.881 24.8667C227.027 25.0041 227.12 25.1711 227.162 25.3668L227.419 26.5741C227.506 26.9809 227.6 27.2731 227.703 27.4477L225.927 27.8244C225.82 27.6293 225.721 27.3191 225.63 26.8943L225.372 25.6793C225.363 25.6394 225.337 25.6155 225.293 25.606L224.707 25.7301L225.187 27.9814L223.41 28.3581L222.19 22.6299L225.067 22.0199ZM224.853 23.2438C224.839 23.1781 224.801 23.1526 224.738 23.166L224.186 23.2831L224.502 24.7686L225.054 24.6515C225.118 24.6381 225.142 24.5993 225.129 24.5375L224.853 23.2438Z" fill="white"/>
<path fill-rule="evenodd" clip-rule="evenodd" d="M228.358 21.2987L228.034 27.302L229.698 27.0093L229.707 25.5981L230.764 25.412L231.262 26.7342L232.92 26.4424L230.558 20.9115L228.358 21.2987ZM229.708 24.5368L229.731 22.6499L230.397 24.4156L229.708 24.5368Z" fill="white"/>
<path d="M232.509 20.6739L234.311 20.453L234.851 24.8417L236.298 24.6646L236.473 26.0882L233.224 26.4863L232.509 20.6739Z" fill="white"/>
<path d="M236.494 20.3428L238.306 20.2163L238.715 26.0583L236.904 26.1847L236.494 20.3428Z" fill="white"/>
<path d="M239.078 20.108L239.103 21.5488L240.764 21.5199L239.087 25.9648L243.139 25.8942L243.114 24.4602L241.612 24.4864L243.165 20.0369L239.078 20.108Z" fill="white"/>
<path d="M243.737 20.1161L247.01 20.1731L246.991 21.2257L245.534 21.2002L245.513 22.4252L246.97 22.4507L246.952 23.4875L245.495 23.462L245.469 24.9502L246.926 24.9755L246.907 26.0281L243.634 25.9712L243.737 20.1161Z" fill="white"/>
<path fill-rule="evenodd" clip-rule="evenodd" d="M250.763 26.2955C250.928 26.2687 251.097 26.179 251.27 26.0261C251.614 25.7231 251.808 25.2577 251.852 24.6327L252.019 22.2515C252.062 21.6265 251.935 21.1389 251.637 20.7908C251.487 20.6155 251.332 20.5031 251.173 20.4537L247.857 20.2223L247.448 26.0641L250.763 26.2955ZM249.999 25.0905C249.995 25.1549 249.961 25.1842 249.896 25.1797L249.333 25.1403L249.596 21.3989L250.159 21.4383C250.223 21.4428 250.252 21.4765 250.248 21.5408L249.999 25.0905Z" fill="white"/>
<path fill-rule="evenodd" clip-rule="evenodd" d="M257.478 27.3788C257.645 27.3693 257.822 27.2977 258.01 27.1636C258.384 26.8981 258.626 26.4555 258.735 25.8388L259.15 23.4878C259.259 22.8707 259.184 22.3727 258.924 21.9954C258.793 21.8054 258.65 21.6774 258.497 21.6117L255.224 21.0358L254.205 26.8029L257.478 27.3788ZM256.844 26.1006C256.833 26.1642 256.796 26.1898 256.732 26.1786L256.177 26.0808L256.829 22.3873L257.385 22.4851C257.449 22.4963 257.475 22.5329 257.463 22.5963L256.844 26.1006Z" fill="white"/>
<path d="M260.178 21.9526L261.954 22.3293L260.734 28.0575L258.958 27.6808L260.178 21.9526Z" fill="white"/>
<path d="M265.592 23.271C266.096 23.406 266.417 23.5899 266.551 23.8232C266.684 24.0549 266.682 24.4249 266.546 24.9307L266.312 25.8028L264.557 25.3336L264.841 24.2787C264.858 24.2152 264.836 24.1739 264.774 24.1572L264.321 24.0363C264.259 24.0196 264.22 24.0446 264.203 24.1081L263.279 27.5465C263.263 27.6049 263.286 27.6436 263.348 27.6603L263.8 27.7812C263.863 27.798 263.902 27.7755 263.917 27.7171L264.216 26.6035L263.899 26.5188L264.069 25.8858L266.141 26.4396L265.379 29.2768L264.872 29.1411L264.843 28.5626C264.699 28.8894 264.322 28.9777 263.71 28.8305L262.542 28.5182C262.035 28.3827 261.714 28.2001 261.582 27.97C261.446 27.7376 261.447 27.3685 261.582 26.8652L262.399 23.8222C262.535 23.3163 262.72 22.9951 262.954 22.8613C263.184 22.7254 263.554 22.7261 264.061 22.8616L265.592 23.271Z" fill="white"/>
<path d="M267.717 23.9545L269.444 24.5144L267.631 30.0841L265.903 29.524L267.717 23.9545Z" fill="white"/>
<path d="M270.136 24.7255L274.205 26.2842L273.827 27.2671L272.64 26.8124L270.915 31.2967L269.219 30.6474L270.944 26.1631L269.757 25.7084L270.136 24.7255Z" fill="white"/>
<path fill-rule="evenodd" clip-rule="evenodd" d="M275.556 26.8706L271.923 31.667L273.467 32.3528L274.265 31.1877L275.246 31.6233L274.917 32.9972L276.456 33.6807L277.597 27.7774L275.556 26.8706ZM274.861 30.3086L275.937 28.757L275.5 30.5923L274.861 30.3086Z" fill="white"/>
<path d="M279.357 28.688L280.975 29.5106L278.963 33.4505L280.262 34.1106L279.609 35.3886L276.692 33.9057L279.357 28.688Z" fill="white"/>
<path d="M287.337 33.1997C287.78 33.4758 288.032 33.7453 288.092 34.0075C288.153 34.2657 288.111 34.5093 287.967 34.7382L287.308 35.7906L285.768 34.8303L286.331 33.9319C286.366 33.8749 286.357 33.8303 286.302 33.796L285.905 33.5486C285.85 33.5144 285.806 33.5256 285.77 33.5826L283.881 36.6002C283.848 36.6527 283.858 36.695 283.913 36.7293L284.31 36.9767C284.365 37.011 284.408 37.002 284.441 36.9495L285.008 36.0434L286.548 37.0037L285.884 38.0639C285.744 38.2883 285.544 38.4307 285.285 38.4894C285.023 38.5508 284.669 38.4422 284.226 38.166L282.882 37.3277C282.437 37.0502 282.184 36.7809 282.127 36.5201C282.064 36.2605 282.172 35.9089 282.449 35.467L284.122 32.7952C284.401 32.3488 284.672 32.0954 284.933 32.0382C285.194 31.9754 285.547 32.0838 285.992 32.3614L287.337 33.1997Z" fill="white"/>
<path d="M292.65 36.8882L290.059 40.5802C289.759 41.0072 289.478 41.2446 289.216 41.2897C288.951 41.3374 288.604 41.2105 288.176 40.9114L286.877 40.0041C286.447 39.7038 286.209 39.4217 286.165 39.1581C286.116 38.8957 286.243 38.5501 286.542 38.1233L289.133 34.4312L290.621 35.4706L287.919 39.3201C287.881 39.375 287.889 39.4208 287.944 39.4594L288.324 39.725C288.377 39.762 288.422 39.7531 288.461 39.6982L291.162 35.8486L292.65 36.8882Z" fill="white"/>
<path fill-rule="evenodd" clip-rule="evenodd" d="M295.741 39.4106C296.141 39.7457 296.354 40.0475 296.376 40.3156C296.399 40.5817 296.24 40.9159 295.903 41.3172L295.793 41.4472C295.498 41.7981 295.255 41.9995 295.062 42.0527C294.874 42.1037 294.587 42.0149 294.201 41.786C294.493 42.1266 294.629 42.395 294.61 42.5901C294.591 42.7889 294.517 42.9654 294.388 43.1186L293.593 44.0642C293.325 44.3828 293.152 44.637 293.078 44.8255L291.687 43.6606C291.774 43.4561 291.959 43.1876 292.238 42.855L293.039 41.9034C293.065 41.8721 293.067 41.8365 293.048 41.7962L292.589 41.4121L291.107 43.1753L289.715 42.0104L293.488 37.5244L295.741 39.4106ZM294.643 39.996C294.686 39.9445 294.683 39.8991 294.633 39.8576L294.201 39.4957L293.223 40.659L293.655 41.0211C293.705 41.0626 293.75 41.0576 293.791 41.0092L294.643 39.996Z" fill="white"/>
<path fill-rule="evenodd" clip-rule="evenodd" d="M299.603 42.9767C299.985 43.3321 300.181 43.6448 300.19 43.9135C300.198 44.1806 300.022 44.5061 299.664 44.889L299.548 45.0132C299.235 45.3482 298.981 45.5367 298.786 45.5798C298.596 45.6207 298.314 45.5171 297.941 45.2685C298.214 45.6238 298.336 45.899 298.306 46.0927C298.277 46.2903 298.193 46.4626 298.057 46.609L297.213 47.5117C296.929 47.8159 296.743 48.0605 296.659 48.2451L295.331 47.0093C295.429 46.8094 295.627 46.551 295.924 46.2335L296.773 45.3249C296.801 45.295 296.806 45.2595 296.788 45.2184L296.35 44.8109L294.777 46.4941L293.449 45.2583L297.452 40.9753L299.603 42.9767ZM298.475 43.5039C298.521 43.4549 298.52 43.4092 298.473 43.3653L298.06 42.9812L297.022 44.0919L297.435 44.476C297.482 44.5201 297.528 44.5175 297.571 44.4712L298.475 43.5039Z" fill="white"/>
<path d="M301.246 44.5957L303.52 46.9452L302.761 47.6766L301.748 46.6305L300.865 47.4815L301.877 48.5276L301.13 49.248L300.117 48.2019L299.044 49.2358L300.057 50.2819L299.298 51.0132L297.024 48.6636L301.246 44.5957Z" fill="white"/>
<path d="M302.558 54.7858L306.988 50.9437L305.796 49.5761L303.813 51.2959L305.21 48.9036L304.07 47.5946L299.641 51.4368L300.832 52.8043L302.812 51.0871L301.418 53.4768L302.558 54.7858Z" fill="white"/>
<path d="M309.346 54.0944C309.653 54.516 309.786 54.8603 309.743 55.1258C309.702 55.3879 309.572 55.5981 309.353 55.7566L308.347 56.4861L307.279 55.0199L308.138 54.3972C308.193 54.3578 308.201 54.313 308.163 54.2607L307.888 53.8828C307.85 53.8306 307.804 53.8244 307.75 53.864L304.865 55.9555C304.815 55.9918 304.809 56.035 304.847 56.0874L305.122 56.4653C305.16 56.5174 305.203 56.5252 305.253 56.4889L306.12 55.8608L307.187 57.327L306.174 58.0616C305.959 58.2171 305.72 58.2746 305.458 58.2321C305.192 58.1911 304.905 57.9581 304.598 57.5365L303.666 56.2568C303.357 55.8331 303.224 55.4889 303.269 55.2257C303.308 54.9614 303.54 54.6759 303.963 54.3695L306.517 52.5178C306.944 52.2084 307.29 52.0746 307.554 52.1192C307.819 52.1583 308.106 52.3909 308.414 52.8146L309.346 54.0944Z" fill="white"/>
<path d="M308.486 58.7054L310.508 55.7346L311.445 57.1738L310.139 58.7185L312.083 58.1537L313.019 59.5919L309.477 60.2286L307.338 61.6149L306.346 60.0917L308.486 58.7054Z" fill="white"/>
<path d="M312.305 67.5154L312.541 68.0211C312.57 68.082 312.614 68.0989 312.675 68.0707L316.6 66.2441L317.368 67.8864L312.924 69.9542C312.683 70.0659 312.437 70.0747 312.187 69.9819C311.933 69.8898 311.696 69.6076 311.475 69.1341L311.002 68.1216L312.305 67.5154Z" fill="white"/>
<path d="M319.596 73.2502C319.792 73.7333 319.837 74.0995 319.731 74.3467C319.628 74.5912 319.451 74.7637 319.2 74.8648L318.047 75.3296L317.366 73.6492L318.351 73.2524C318.413 73.2273 318.432 73.1858 318.408 73.1259L318.232 72.6928C318.208 72.6329 318.166 72.6161 318.103 72.6412L314.797 73.9741C314.739 73.9974 314.723 74.0378 314.747 74.0977L314.923 74.5309C314.947 74.5907 314.987 74.6086 315.044 74.5855L316.037 74.1852L316.717 75.8654L315.556 76.3337C315.31 76.4329 315.065 76.431 314.82 76.3265C314.572 76.2221 314.35 75.927 314.154 75.4439L313.56 73.9772C313.364 73.4915 313.318 73.1255 313.425 72.8809C313.527 72.6338 313.822 72.4129 314.306 72.2177L317.233 71.0374C317.723 70.8403 318.091 70.794 318.336 70.9011C318.583 71.0028 318.805 71.2978 319.002 71.7835L319.596 73.2502Z" fill="white"/>
<path fill-rule="evenodd" clip-rule="evenodd" d="M321.293 78.0967C321.464 78.5894 321.49 78.9575 321.371 79.1989C321.255 79.4375 320.947 79.6424 320.448 79.8139L317.462 80.8395C316.969 81.0093 316.601 81.0365 316.363 80.9194C316.12 80.8023 315.914 80.496 315.744 80.0033L315.228 78.5077C315.057 78.0123 315.031 77.6444 315.151 77.4056C315.265 77.1642 315.571 76.959 316.065 76.7894L319.05 75.7638C319.549 75.5923 319.919 75.5653 320.159 75.685C320.4 75.7996 320.606 76.1057 320.777 76.6011L321.293 78.0967ZM320.057 78.0315C320.116 78.0113 320.134 77.9717 320.113 77.9106L319.961 77.469C319.94 77.4078 319.901 77.3879 319.842 77.408L316.47 78.5665C316.407 78.5884 316.386 78.6289 316.407 78.69L316.559 79.1316C316.58 79.1927 316.622 79.2118 316.686 79.19L320.057 78.0315Z" fill="white"/>
<path d="M321.846 80.1982L322.346 81.94L316.705 83.5543L316.204 81.8123L321.846 80.1982Z" fill="white"/>
<path d="M317.808 88.4103L323.502 86.9935L323.063 85.2353L320.514 85.8694L322.847 84.3707L322.427 82.6879L316.732 84.1045L317.171 85.8629L319.716 85.2296L317.387 86.7273L317.808 88.4103Z" fill="white"/>
<path fill-rule="evenodd" clip-rule="evenodd" d="M318.699 96.2586C318.752 96.4165 318.867 96.5688 319.045 96.7157C319.399 97.0072 319.89 97.1255 320.516 97.0709L322.899 96.8629C323.524 96.8083 323.987 96.6067 324.285 96.2582C324.435 96.0828 324.522 95.9127 324.546 95.7481L324.257 92.4445L318.41 92.9548L318.699 96.2586ZM319.773 95.3166C319.708 95.3223 319.674 95.2936 319.669 95.2294L319.619 94.6683L323.364 94.3413L323.413 94.9024C323.419 94.9668 323.39 95.0009 323.325 95.0064L319.773 95.3166Z" fill="white"/>
<path d="M324.663 97.5679L324.778 100.832L323.723 100.869L323.672 99.4156L322.445 99.4583L322.496 100.912L321.458 100.948L321.407 99.4947L319.916 99.5465L319.967 101L318.912 101.036L318.798 97.7723L324.663 97.5679Z" fill="white"/>
<path d="M324.696 104.599C324.686 105.12 324.585 105.475 324.391 105.661C324.2 105.846 323.969 105.935 323.699 105.93L322.455 105.909L322.487 104.097L323.548 104.115C323.616 104.117 323.649 104.086 323.65 104.021L323.659 103.554C323.66 103.489 323.627 103.457 323.56 103.456L319.994 103.394C319.932 103.393 319.901 103.424 319.9 103.489L319.892 103.956C319.891 104.02 319.921 104.052 319.983 104.053L321.053 104.072L321.022 105.884L319.769 105.862C319.504 105.857 319.279 105.76 319.095 105.569C318.907 105.376 318.818 105.018 318.827 104.497L318.855 102.915C318.864 102.391 318.965 102.036 319.16 101.853C319.351 101.665 319.708 101.577 320.23 101.586L323.387 101.641C323.915 101.65 324.272 101.751 324.456 101.945C324.644 102.135 324.732 102.493 324.723 103.017L324.696 104.599Z" fill="white"/>
<path d="M324.647 106.787L324.418 110.045L323.366 109.971L323.468 108.521L322.243 108.435L322.141 109.886L321.104 109.814L321.206 108.363L319.718 108.259L319.616 109.71L318.564 109.636L318.792 106.378L324.647 106.787Z" fill="white"/>
<path d="M317.935 114.571L323.76 115.285L323.982 113.486L321.374 113.167L324.091 112.602L324.302 110.881L318.477 110.167L318.256 111.965L320.86 112.284L318.147 112.85L317.935 114.571Z" fill="white"/>
<path d="M323.56 115.925L322.804 120.208L321.764 120.026L321.985 118.776L317.244 117.942L317.56 116.158L322.301 116.992L322.521 115.743L323.56 115.925Z" fill="white"/>
<path fill-rule="evenodd" clip-rule="evenodd" d="M321.768 123.906C321.633 124.409 321.449 124.729 321.215 124.863C320.982 124.996 320.612 124.993 320.105 124.858L319.94 124.814C319.497 124.695 319.211 124.56 319.081 124.408C318.956 124.26 318.915 123.963 318.96 123.517C318.774 123.926 318.587 124.162 318.402 124.227C318.213 124.293 318.022 124.301 317.828 124.249L316.633 123.93C316.231 123.822 315.927 123.773 315.724 123.786L316.194 122.035C316.417 122.029 316.739 122.082 317.159 122.194L318.362 122.516C318.401 122.526 318.435 122.513 318.463 122.479L318.618 121.902L316.39 121.306L316.86 119.556L322.529 121.071L321.768 123.906ZM320.772 123.16C320.837 123.177 320.877 123.156 320.894 123.093L321.04 122.549L319.57 122.156L319.424 122.7C319.407 122.762 319.431 122.801 319.492 122.818L320.772 123.16Z" fill="white"/>
<path fill-rule="evenodd" clip-rule="evenodd" d="M320.757 127.172L315.597 124.069L315.075 125.672L316.319 126.343L315.988 127.361L314.584 127.179L314.063 128.777L320.067 129.293L320.757 127.172ZM317.258 126.842L318.917 127.748L317.042 127.505L317.258 126.842Z" fill="white"/>
<path d="M319.303 131.12L318.652 132.812L314.515 131.228L313.992 132.585L312.65 132.071L313.823 129.022L319.303 131.12Z" fill="white"/>
<path d="M317.865 134.873L317.126 136.528L311.765 134.146L312.503 132.491L317.865 134.873Z" fill="white"/>
<path d="M316.79 137.204L315.503 136.549L314.749 138.025L311.603 134.462L309.763 138.065L311.044 138.716L311.726 137.381L314.934 140.837L316.79 137.204Z" fill="white"/>
<path d="M314.613 141.32L313.025 144.177L312.103 143.666L312.809 142.395L311.735 141.801L311.029 143.072L310.12 142.57L310.826 141.298L309.522 140.576L308.815 141.848L307.892 141.338L309.479 138.481L314.613 141.32Z" fill="white"/>
<path fill-rule="evenodd" clip-rule="evenodd" d="M305.822 144.523C305.769 144.681 305.769 144.872 305.823 145.096C305.93 145.541 306.25 145.931 306.783 146.263L308.812 147.528C309.344 147.86 309.836 147.977 310.283 147.877C310.509 147.827 310.681 147.744 310.8 147.627L312.561 144.814L307.584 141.711L305.822 144.523ZM307.248 144.416C307.193 144.381 307.183 144.338 307.217 144.283L307.516 143.806L310.704 145.793L310.405 146.271C310.37 146.326 310.327 146.335 310.272 146.301L307.248 144.416Z" fill="white"/>
<path fill-rule="evenodd" clip-rule="evenodd" d="M301.671 149.993C301.602 150.144 301.582 150.334 301.612 150.563C301.671 151.017 301.949 151.438 302.444 151.823L304.329 153.293C304.824 153.679 305.3 153.846 305.756 153.794C305.986 153.768 306.166 153.703 306.296 153.599L308.342 150.985L303.717 147.38L301.671 149.993ZM303.1 150.035C303.049 149.995 303.043 149.951 303.083 149.9L303.431 149.456L306.393 151.765L306.045 152.209C306.005 152.26 305.961 152.265 305.91 152.225L303.1 150.035Z" fill="white"/>
<path d="M305.206 154.928L304.038 156.316L299.542 152.552L300.71 151.164L305.206 154.928Z" fill="white"/>
<path d="M301.386 159.032C301.03 159.413 300.716 159.609 300.447 159.618C300.179 159.626 299.853 159.45 299.469 159.093L298.807 158.477L300.046 157.152L300.847 157.897C300.895 157.942 300.942 157.942 300.986 157.895L301.305 157.553C301.349 157.506 301.345 157.46 301.297 157.415L298.688 154.987C298.644 154.946 298.599 154.947 298.555 154.994L298.236 155.336C298.192 155.383 298.193 155.428 298.238 155.469L299.083 156.255L299.306 156.016L299.787 156.463L298.324 158.028L296.171 156.024L296.53 155.641L297.055 155.888C296.833 155.607 296.932 155.234 297.35 154.764L298.175 153.881C298.532 153.498 298.845 153.301 299.11 153.293C299.38 153.282 299.706 153.456 300.088 153.812L302.397 155.96C302.781 156.317 302.978 156.631 302.987 156.9C302.999 157.166 302.825 157.492 302.467 157.875L301.386 159.032Z" fill="white"/>
<path d="M299.849 160.569L298.543 161.827L294.466 157.615L295.772 156.356L299.849 160.569Z" fill="white"/>
<path d="M298.05 162.322L294.761 165.176L294.069 164.381L295.028 163.549L291.87 159.924L293.24 158.735L296.399 162.36L297.358 161.528L298.05 162.322Z" fill="white"/>
<path fill-rule="evenodd" clip-rule="evenodd" d="M293.655 166.022L291.021 160.614L289.708 161.675L290.386 162.914L289.552 163.588L288.474 162.672L287.165 163.73L291.919 167.425L293.655 166.022ZM290.901 163.843L291.797 165.504L290.357 164.282L290.901 163.843Z" fill="white"/>
<path d="M290.22 168.566L288.75 169.631L286.146 166.054L284.967 166.908L284.122 165.748L286.77 163.828L290.22 168.566Z" fill="white"/>
<path d="M282.46 173.502C282.008 173.762 281.651 173.858 281.391 173.788C281.134 173.72 280.938 173.569 280.803 173.335L280.181 172.26L281.754 171.354L282.285 172.272C282.318 172.33 282.362 172.342 282.418 172.31L282.823 172.077C282.88 172.044 282.89 172 282.857 171.942L281.074 168.86C281.043 168.807 281 168.796 280.944 168.829L280.539 169.062C280.483 169.094 280.471 169.136 280.501 169.19L281.037 170.115L279.464 171.021L278.838 169.939C278.705 169.71 278.673 169.467 278.743 169.211C278.811 168.951 279.073 168.691 279.526 168.43L280.899 167.639C281.353 167.377 281.71 167.281 281.968 167.353C282.227 167.419 282.488 167.68 282.749 168.131L284.327 170.859C284.591 171.315 284.688 171.673 284.616 171.93C284.55 172.188 284.288 172.449 283.833 172.711L282.46 173.502Z" fill="white"/>
<path d="M276.766 176.426L274.646 172.446C274.401 171.986 274.316 171.629 274.395 171.375C274.473 171.118 274.744 170.867 275.205 170.622L276.604 169.879C277.068 169.634 277.428 169.55 277.683 169.631C277.94 169.706 278.191 169.975 278.436 170.435L280.557 174.415L278.953 175.266L276.742 171.116C276.711 171.057 276.666 171.044 276.607 171.075L276.197 171.293C276.14 171.323 276.127 171.367 276.159 171.426L278.37 175.575L276.766 176.426Z" fill="white"/>
<path fill-rule="evenodd" clip-rule="evenodd" d="M272.995 177.959C272.51 178.154 272.143 178.199 271.896 178.094C271.65 177.988 271.428 177.692 271.232 177.206L271.168 177.048C270.996 176.624 270.932 176.315 270.976 176.12C271.019 175.931 271.232 175.72 271.616 175.487C271.177 175.584 270.876 175.578 270.712 175.47C270.545 175.359 270.424 175.211 270.349 175.025L269.885 173.881C269.729 173.495 269.585 173.224 269.453 173.07L271.137 172.391C271.277 172.565 271.428 172.853 271.591 173.256L272.057 174.408C272.073 174.445 272.103 174.464 272.148 174.466L272.703 174.242L271.839 172.108L273.523 171.43L275.722 176.859L272.995 177.959ZM272.992 176.716C273.018 176.779 273.059 176.797 273.119 176.773L273.643 176.562L273.072 175.154L272.549 175.365C272.489 175.389 272.472 175.431 272.496 175.49L272.992 176.716Z" fill="white"/>
<path fill-rule="evenodd" clip-rule="evenodd" d="M268.082 179.725C267.588 179.895 267.219 179.921 266.977 179.802C266.737 179.684 266.532 179.376 266.361 178.881L266.306 178.721C266.156 178.288 266.109 177.975 266.162 177.783C266.215 177.597 266.439 177.397 266.834 177.185C266.391 177.259 266.091 177.237 265.933 177.12C265.772 177.001 265.659 176.847 265.594 176.658L265.191 175.491C265.055 175.097 264.926 174.819 264.802 174.658L266.519 174.068C266.65 174.249 266.785 174.545 266.927 174.955L267.332 176.13C267.346 176.168 267.375 176.189 267.42 176.193L267.986 175.998L267.235 173.822L268.952 173.232L270.863 178.769L268.082 179.725ZM268.145 178.484C268.167 178.548 268.207 178.568 268.269 178.547L268.802 178.364L268.307 176.928L267.773 177.111C267.712 177.132 267.693 177.174 267.713 177.234L268.145 178.484Z" fill="white"/>
<path d="M265.841 180.427L262.695 181.328L262.404 180.316L263.805 179.915L263.466 178.737L262.065 179.138L261.779 178.141L263.18 177.74L262.769 176.31L261.368 176.71L261.077 175.698L264.223 174.798L265.841 180.427Z" fill="white"/>
<path d="M256.183 176.73L257.503 182.436L259.273 182.028L258.682 179.474L260.143 181.828L261.837 181.438L260.516 175.732L258.747 176.139L259.337 178.69L257.877 176.34L256.183 176.73Z" fill="white"/>
<path d="M253.592 183.022C253.075 183.094 252.708 183.05 252.493 182.887C252.28 182.729 252.156 182.515 252.118 182.248L251.945 181.019L253.744 180.767L253.891 181.816C253.901 181.882 253.937 181.91 254.001 181.901L254.464 181.836C254.528 181.827 254.555 181.79 254.546 181.724L254.049 178.2C254.041 178.139 254.005 178.113 253.941 178.122L253.478 178.187C253.413 178.196 253.386 178.231 253.395 178.292L253.544 179.35L251.745 179.602L251.571 178.364C251.534 178.102 251.595 177.865 251.756 177.654C251.918 177.438 252.258 177.295 252.775 177.223L254.345 177.003C254.865 176.93 255.232 176.974 255.444 177.137C255.66 177.295 255.803 177.634 255.876 178.15L256.315 181.27C256.389 181.791 256.345 182.159 256.181 182.37C256.023 182.585 255.682 182.729 255.162 182.802L253.592 183.022Z" fill="white"/>
<path d="M249.929 180.068L251.608 183.246L249.895 183.395L249.142 181.519L248.728 183.497L247.016 183.646L248.116 180.227L247.894 177.691L249.707 177.533L249.929 180.068Z" fill="white"/>
<path d="M312.063 62.0446C312.558 62.0446 312.96 62.4453 312.96 62.9392C312.96 63.4332 312.558 63.8338 312.063 63.8338C311.568 63.8338 311.167 63.4332 311.167 62.9392C311.167 62.4453 311.568 62.0446 312.063 62.0446Z" fill="white"/>
<path d="M321.825 90.1839C321.825 89.6899 321.423 89.2893 320.928 89.2893C320.433 89.2893 320.032 89.6899 320.032 90.1839C320.032 90.6778 320.433 91.0785 320.928 91.0785C321.423 91.0785 321.825 90.6778 321.825 90.1839Z" fill="white"/>
<path d="M174.588 60.1363C175.083 60.1363 175.484 60.5369 175.484 61.0308C175.484 61.5248 175.083 61.9254 174.588 61.9254C174.093 61.9254 173.691 61.5248 173.691 61.0308C173.691 60.5369 174.093 60.1363 174.588 60.1363Z" fill="white"/>
<path d="M195.732 39.0677C195.732 38.5738 195.331 38.1731 194.836 38.1731C194.341 38.1731 193.939 38.5738 193.939 39.0677C193.939 39.5617 194.341 39.9623 194.836 39.9623C195.331 39.9623 195.732 39.5617 195.732 39.0677Z" fill="white"/>
<path d="M214.358 174.673C214.853 174.673 215.254 175.073 215.254 175.567C215.254 176.061 214.853 176.462 214.358 176.462C213.863 176.462 213.461 176.061 213.461 175.567C213.461 175.073 213.863 174.673 214.358 174.673Z" fill="white"/>
<path d="M244.838 180.776C244.838 180.282 244.436 179.881 243.941 179.881C243.446 179.881 243.045 180.282 243.045 180.776C243.045 181.27 243.446 181.671 243.941 181.671C244.436 181.671 244.838 181.27 244.838 180.776Z" fill="white"/>
<path d="M358.389 73.6541H375.716V88.7212H358.891V139.698H339.304V70.6406C339.304 62.9396 341.564 56.8291 346.084 52.3089C350.688 47.7888 357.133 45.5287 365.42 45.5287C368.35 45.5287 371.112 45.8635 373.707 46.5332C376.386 47.1191 378.604 47.998 380.362 49.1699L375.214 63.3582C372.954 61.7677 370.317 60.9725 367.304 60.9725C361.36 60.9725 358.389 64.2371 358.389 70.7662V73.6541ZM416.815 140.703C409.7 140.703 403.297 139.238 397.605 136.308C391.996 133.295 387.602 129.151 384.421 123.878C381.24 118.604 379.65 112.619 379.65 105.923C379.65 99.2264 381.24 93.2414 384.421 87.9679C387.602 82.6944 391.996 78.5927 397.605 75.663C403.297 72.6496 409.7 71.1429 416.815 71.1429C423.93 71.1429 430.292 72.6496 435.9 75.663C441.509 78.5927 445.903 82.6944 449.084 87.9679C452.265 93.2414 453.855 99.2264 453.855 105.923C453.855 112.619 452.265 118.604 449.084 123.878C445.903 129.151 441.509 133.295 435.9 136.308C430.292 139.238 423.93 140.703 416.815 140.703ZM416.815 124.631C421.838 124.631 425.939 122.957 429.12 119.609C432.385 116.177 434.017 111.615 434.017 105.923C434.017 100.231 432.385 95.7107 429.12 92.3625C425.939 88.9305 421.838 87.2145 416.815 87.2145C411.793 87.2145 407.649 88.9305 404.385 92.3625C401.12 95.7107 399.488 100.231 399.488 105.923C399.488 111.615 401.12 116.177 404.385 119.609C407.649 122.957 411.793 124.631 416.815 124.631ZM485.656 81.0621C488 77.7975 491.139 75.3282 495.073 73.6541C499.091 71.9799 503.695 71.1429 508.885 71.1429V89.2235C506.709 89.0561 505.244 88.9724 504.49 88.9724C498.882 88.9724 494.487 90.5628 491.307 93.7436C488.126 96.8408 486.535 101.528 486.535 107.806V139.698H466.948V72.1473H485.656V81.0621ZM552.564 140.703C545.365 140.703 538.878 139.238 533.102 136.308C527.41 133.295 522.932 129.151 519.667 123.878C516.487 118.604 514.896 112.619 514.896 105.923C514.896 99.2264 516.487 93.2414 519.667 87.9679C522.932 82.6944 527.41 78.5927 533.102 75.663C538.878 72.6496 545.365 71.1429 552.564 71.1429C559.679 71.1429 565.873 72.6496 571.147 75.663C576.504 78.5927 580.396 82.8199 582.824 88.3446L567.631 96.5059C564.116 90.3117 559.051 87.2145 552.439 87.2145C547.332 87.2145 543.105 88.8886 539.757 92.2369C536.409 95.5852 534.735 100.147 534.735 105.923C534.735 111.699 536.409 116.261 539.757 119.609C543.105 122.957 547.332 124.631 552.439 124.631C559.135 124.631 564.199 121.534 567.631 115.34L582.824 123.627C580.396 128.984 576.504 133.169 571.147 136.183C565.873 139.196 559.679 140.703 552.564 140.703ZM627.27 125.008C630.786 125.008 633.883 124.506 636.562 123.501C639.324 122.413 641.877 120.739 644.221 118.479L654.642 129.779C648.281 137.062 638.989 140.703 626.768 140.703C619.151 140.703 612.412 139.238 606.553 136.308C600.693 133.295 596.173 129.151 592.992 123.878C589.812 118.604 588.221 112.619 588.221 105.923C588.221 99.3101 589.77 93.3669 592.867 88.0934C596.048 82.7362 600.359 78.5927 605.799 75.663C611.324 72.6496 617.518 71.1429 624.382 71.1429C630.828 71.1429 636.687 72.524 641.961 75.2863C647.234 77.9649 651.419 81.8991 654.517 87.089C657.697 92.195 659.288 98.2638 659.288 105.295L609.315 114.963C610.738 118.311 612.956 120.823 615.97 122.497C619.067 124.171 622.834 125.008 627.27 125.008ZM624.382 85.9589C619.444 85.9589 615.426 87.5493 612.329 90.7302C609.231 93.911 607.599 98.3056 607.432 103.914L640.328 97.5104C639.408 93.9947 637.524 91.1906 634.678 89.0979C631.832 87.0052 628.4 85.9589 624.382 85.9589Z" fill="url(#paint2_linear_125_43)"/>
<path d="M714.15 144.613C718.867 144.613 722.691 148.437 722.691 153.153C722.691 157.87 718.867 161.694 714.15 161.694C710.744 161.694 707.805 159.698 706.435 156.813H618.373L612.68 149.493H706.434C707.804 146.608 710.744 144.614 714.15 144.613ZM714.15 149.493C712.129 149.493 710.49 151.132 710.49 153.153C710.49 155.174 712.129 156.813 714.15 156.813C716.172 156.813 717.81 155.175 717.811 153.153C717.81 151.132 716.172 149.493 714.15 149.493ZM745.466 116.145C750.182 116.145 754.007 119.968 754.007 124.685C754.007 129.401 750.182 133.225 745.466 133.226C742.06 133.225 739.12 131.23 737.749 128.346H681.005L675.311 121.024H737.749C739.12 118.14 742.059 116.145 745.466 116.145ZM745.467 121.024C743.445 121.024 741.807 122.663 741.807 124.685C741.807 126.706 743.445 128.345 745.467 128.345C747.488 128.344 749.127 126.706 749.127 124.685C749.127 122.663 747.488 121.025 745.467 121.024ZM702.763 81.9824C707.479 81.9826 711.304 85.8067 711.304 90.5234C711.303 95.2398 707.479 99.0633 702.763 99.0635C699.356 99.0633 696.416 97.0679 695.045 94.1826H678.157L683.852 86.8623H695.046C696.417 83.9775 699.356 81.9826 702.763 81.9824ZM702.764 86.8633C700.742 86.8633 699.104 88.5019 699.104 90.5234C699.104 92.5448 700.742 94.1836 702.764 94.1836C704.785 94.1834 706.424 92.5447 706.424 90.5234C706.424 88.5021 704.785 86.8635 702.764 86.8633ZM725.538 56.3604C730.255 56.3605 734.079 60.1846 734.079 64.9014C734.079 69.6179 730.255 73.4412 725.538 73.4414C722.132 73.4412 719.192 71.4463 717.821 68.5615H666.771L672.464 61.2412H717.82C719.191 58.3559 722.131 56.3605 725.538 56.3604ZM725.537 61.2402C723.516 61.2404 721.877 62.8799 721.877 64.9014C721.877 66.9226 723.516 68.5614 725.537 68.5615C727.558 68.5614 729.197 66.9225 729.197 64.9014C729.197 62.88 727.558 61.2404 725.537 61.2402Z" fill="url(#paint3_linear_125_43)"/>
<path d="M363.254 152.521H365.879V165.988C365.879 167.482 365.546 168.726 364.881 169.72C364.215 170.713 363.331 171.461 362.229 171.962C361.135 172.454 359.945 172.7 358.66 172.7C357.311 172.7 356.09 172.454 354.996 171.962C353.911 171.461 353.05 170.713 352.412 169.72C351.783 168.726 351.469 167.482 351.469 165.988V152.521H354.08V165.988C354.08 167.027 354.271 167.883 354.654 168.558C355.037 169.232 355.57 169.734 356.254 170.062C356.947 170.39 357.749 170.554 358.66 170.554C359.581 170.554 360.383 170.39 361.066 170.062C361.759 169.734 362.297 169.232 362.68 168.558C363.062 167.883 363.254 167.027 363.254 165.988V152.521ZM372.168 160.792V172.427H369.639V157.634H372.031L372.168 160.792ZM371.566 164.47L370.514 164.429C370.523 163.417 370.673 162.483 370.965 161.626C371.257 160.76 371.667 160.008 372.195 159.37C372.724 158.732 373.353 158.24 374.082 157.894C374.82 157.538 375.636 157.361 376.529 157.361C377.258 157.361 377.915 157.461 378.498 157.661C379.081 157.853 379.578 158.163 379.988 158.591C380.408 159.019 380.727 159.575 380.945 160.259C381.164 160.934 381.273 161.758 381.273 162.734V172.427H378.73V162.706C378.73 161.932 378.617 161.312 378.389 160.847C378.161 160.373 377.828 160.031 377.391 159.822C376.953 159.603 376.415 159.493 375.777 159.493C375.148 159.493 374.574 159.626 374.055 159.89C373.544 160.154 373.102 160.519 372.729 160.984C372.364 161.448 372.077 161.982 371.867 162.583C371.667 163.176 371.566 163.805 371.566 164.47ZM387.863 157.634V172.427H385.32V157.634H387.863ZM385.129 153.71C385.129 153.3 385.252 152.954 385.498 152.671C385.753 152.389 386.127 152.247 386.619 152.247C387.102 152.247 387.471 152.389 387.727 152.671C387.991 152.954 388.123 153.3 388.123 153.71C388.123 154.102 387.991 154.439 387.727 154.722C387.471 154.995 387.102 155.132 386.619 155.132C386.127 155.132 385.753 154.995 385.498 154.722C385.252 154.439 385.129 154.102 385.129 153.71ZM398.117 157.634V159.575H390.119V157.634H398.117ZM392.826 154.038H395.355V168.763C395.355 169.264 395.433 169.642 395.588 169.898C395.743 170.153 395.943 170.322 396.189 170.404C396.436 170.486 396.7 170.527 396.982 170.527C397.192 170.527 397.411 170.508 397.639 170.472C397.876 170.426 398.053 170.39 398.172 170.363L398.186 172.427C397.985 172.491 397.721 172.55 397.393 172.605C397.074 172.669 396.686 172.7 396.23 172.7C395.611 172.7 395.041 172.577 394.521 172.331C394.002 172.085 393.587 171.675 393.277 171.101C392.977 170.517 392.826 169.734 392.826 168.749V154.038ZM407.223 172.7C406.193 172.7 405.258 172.527 404.42 172.181C403.59 171.825 402.875 171.329 402.273 170.691C401.681 170.053 401.225 169.296 400.906 168.421C400.587 167.546 400.428 166.589 400.428 165.55V164.976C400.428 163.773 400.605 162.702 400.961 161.763C401.316 160.815 401.799 160.013 402.41 159.357C403.021 158.7 403.714 158.204 404.488 157.866C405.263 157.529 406.065 157.361 406.895 157.361C407.952 157.361 408.863 157.543 409.629 157.907C410.404 158.272 411.037 158.782 411.529 159.439C412.021 160.086 412.386 160.851 412.623 161.736C412.86 162.611 412.979 163.568 412.979 164.607V165.741H401.932V163.677H410.449V163.486C410.413 162.829 410.276 162.191 410.039 161.572C409.811 160.952 409.447 160.441 408.945 160.04C408.444 159.639 407.76 159.439 406.895 159.439C406.32 159.439 405.792 159.562 405.309 159.808C404.826 160.045 404.411 160.4 404.064 160.874C403.718 161.348 403.449 161.927 403.258 162.611C403.066 163.294 402.971 164.083 402.971 164.976V165.55C402.971 166.252 403.066 166.913 403.258 167.532C403.458 168.143 403.745 168.681 404.119 169.146C404.502 169.611 404.962 169.975 405.5 170.24C406.047 170.504 406.667 170.636 407.359 170.636C408.253 170.636 409.009 170.454 409.629 170.089C410.249 169.725 410.791 169.237 411.256 168.626L412.787 169.843C412.468 170.326 412.062 170.786 411.57 171.224C411.078 171.661 410.472 172.017 409.752 172.29C409.041 172.564 408.198 172.7 407.223 172.7ZM425.256 169.556V151.427H427.799V172.427H425.475L425.256 169.556ZM415.303 165.195V164.907C415.303 163.777 415.439 162.752 415.713 161.831C415.995 160.902 416.392 160.104 416.902 159.439C417.422 158.773 418.037 158.263 418.748 157.907C419.468 157.543 420.27 157.361 421.154 157.361C422.084 157.361 422.895 157.525 423.588 157.853C424.29 158.172 424.882 158.641 425.365 159.261C425.857 159.872 426.245 160.61 426.527 161.476C426.81 162.342 427.006 163.322 427.115 164.415V165.673C427.015 166.758 426.819 167.733 426.527 168.599C426.245 169.465 425.857 170.203 425.365 170.814C424.882 171.424 424.29 171.894 423.588 172.222C422.886 172.541 422.066 172.7 421.127 172.7C420.261 172.7 419.468 172.514 418.748 172.14C418.037 171.766 417.422 171.242 416.902 170.568C416.392 169.893 415.995 169.1 415.713 168.189C415.439 167.268 415.303 166.27 415.303 165.195ZM417.846 164.907V165.195C417.846 165.933 417.919 166.626 418.064 167.273C418.219 167.92 418.456 168.49 418.775 168.982C419.094 169.474 419.5 169.861 419.992 170.144C420.484 170.417 421.072 170.554 421.756 170.554C422.594 170.554 423.283 170.376 423.82 170.021C424.367 169.665 424.805 169.196 425.133 168.613C425.461 168.029 425.716 167.396 425.898 166.712V163.417C425.789 162.916 425.63 162.433 425.42 161.968C425.219 161.494 424.955 161.075 424.627 160.71C424.308 160.337 423.911 160.04 423.438 159.822C422.973 159.603 422.421 159.493 421.783 159.493C421.09 159.493 420.493 159.639 419.992 159.931C419.5 160.213 419.094 160.605 418.775 161.107C418.456 161.599 418.219 162.173 418.064 162.829C417.919 163.476 417.846 164.169 417.846 164.907ZM441.43 157.634V172.427H438.887V157.634H441.43ZM438.695 153.71C438.695 153.3 438.818 152.954 439.064 152.671C439.32 152.389 439.693 152.247 440.186 152.247C440.669 152.247 441.038 152.389 441.293 152.671C441.557 152.954 441.689 153.3 441.689 153.71C441.689 154.102 441.557 154.439 441.293 154.722C441.038 154.995 440.669 155.132 440.186 155.132C439.693 155.132 439.32 154.995 439.064 154.722C438.818 154.439 438.695 154.102 438.695 153.71ZM448.02 160.792V172.427H445.49V157.634H447.883L448.02 160.792ZM447.418 164.47L446.365 164.429C446.374 163.417 446.525 162.483 446.816 161.626C447.108 160.76 447.518 160.008 448.047 159.37C448.576 158.732 449.204 158.24 449.934 157.894C450.672 157.538 451.488 157.361 452.381 157.361C453.11 157.361 453.766 157.461 454.35 157.661C454.933 157.853 455.43 158.163 455.84 158.591C456.259 159.019 456.578 159.575 456.797 160.259C457.016 160.934 457.125 161.758 457.125 162.734V172.427H454.582V162.706C454.582 161.932 454.468 161.312 454.24 160.847C454.012 160.373 453.68 160.031 453.242 159.822C452.805 159.603 452.267 159.493 451.629 159.493C451 159.493 450.426 159.626 449.906 159.89C449.396 160.154 448.954 160.519 448.58 160.984C448.215 161.448 447.928 161.982 447.719 162.583C447.518 163.176 447.418 163.805 447.418 164.47ZM471.125 152.521V172.427H468.486V152.521H471.125ZM478.07 160.792V172.427H475.541V157.634H477.934L478.07 160.792ZM477.469 164.47L476.416 164.429C476.425 163.417 476.576 162.483 476.867 161.626C477.159 160.76 477.569 160.008 478.098 159.37C478.626 158.732 479.255 158.24 479.984 157.894C480.723 157.538 481.538 157.361 482.432 157.361C483.161 157.361 483.817 157.461 484.4 157.661C484.984 157.853 485.48 158.163 485.891 158.591C486.31 159.019 486.629 159.575 486.848 160.259C487.066 160.934 487.176 161.758 487.176 162.734V172.427H484.633V162.706C484.633 161.932 484.519 161.312 484.291 160.847C484.063 160.373 483.73 160.031 483.293 159.822C482.855 159.603 482.318 159.493 481.68 159.493C481.051 159.493 480.477 159.626 479.957 159.89C479.447 160.154 479.005 160.519 478.631 160.984C478.266 161.448 477.979 161.982 477.77 162.583C477.569 163.176 477.469 163.805 477.469 164.47ZM493.547 160.792V172.427H491.018V157.634H493.41L493.547 160.792ZM492.945 164.47L491.893 164.429C491.902 163.417 492.052 162.483 492.344 161.626C492.635 160.76 493.046 160.008 493.574 159.37C494.103 158.732 494.732 158.24 495.461 157.894C496.199 157.538 497.015 157.361 497.908 157.361C498.637 157.361 499.294 157.461 499.877 157.661C500.46 157.853 500.957 158.163 501.367 158.591C501.786 159.019 502.105 159.575 502.324 160.259C502.543 160.934 502.652 161.758 502.652 162.734V172.427H500.109V162.706C500.109 161.932 499.995 161.312 499.768 160.847C499.54 160.373 499.207 160.031 498.77 159.822C498.332 159.603 497.794 159.493 497.156 159.493C496.527 159.493 495.953 159.626 495.434 159.89C494.923 160.154 494.481 160.519 494.107 160.984C493.743 161.448 493.456 161.982 493.246 162.583C493.046 163.176 492.945 163.805 492.945 164.47ZM505.824 165.195V164.88C505.824 163.814 505.979 162.825 506.289 161.913C506.599 160.993 507.046 160.195 507.629 159.521C508.212 158.837 508.919 158.309 509.748 157.935C510.577 157.552 511.507 157.361 512.537 157.361C513.576 157.361 514.51 157.552 515.34 157.935C516.178 158.309 516.889 158.837 517.473 159.521C518.065 160.195 518.516 160.993 518.826 161.913C519.136 162.825 519.291 163.814 519.291 164.88V165.195C519.291 166.261 519.136 167.25 518.826 168.161C518.516 169.073 518.065 169.87 517.473 170.554C516.889 171.228 516.183 171.757 515.354 172.14C514.533 172.514 513.604 172.7 512.564 172.7C511.525 172.7 510.591 172.514 509.762 172.14C508.932 171.757 508.221 171.228 507.629 170.554C507.046 169.87 506.599 169.073 506.289 168.161C505.979 167.25 505.824 166.261 505.824 165.195ZM508.354 164.88V165.195C508.354 165.933 508.44 166.63 508.613 167.286C508.786 167.934 509.046 168.508 509.393 169.009C509.748 169.51 510.19 169.907 510.719 170.198C511.247 170.481 511.863 170.622 512.564 170.622C513.257 170.622 513.863 170.481 514.383 170.198C514.911 169.907 515.349 169.51 515.695 169.009C516.042 168.508 516.301 167.934 516.475 167.286C516.657 166.63 516.748 165.933 516.748 165.195V164.88C516.748 164.151 516.657 163.463 516.475 162.816C516.301 162.159 516.037 161.581 515.682 161.079C515.335 160.569 514.898 160.168 514.369 159.876C513.85 159.585 513.239 159.439 512.537 159.439C511.844 159.439 511.234 159.585 510.705 159.876C510.186 160.168 509.748 160.569 509.393 161.079C509.046 161.581 508.786 162.159 508.613 162.816C508.44 163.463 508.354 164.151 508.354 164.88ZM526.742 170.144L530.789 157.634H533.373L528.055 172.427H526.359L526.742 170.144ZM523.365 157.634L527.535 170.212L527.822 172.427H526.127L520.768 157.634H523.365ZM544.311 169.898V162.282C544.311 161.699 544.192 161.193 543.955 160.765C543.727 160.327 543.381 159.99 542.916 159.753C542.451 159.516 541.877 159.398 541.193 159.398C540.555 159.398 539.995 159.507 539.512 159.726C539.038 159.945 538.664 160.232 538.391 160.587C538.126 160.943 537.994 161.325 537.994 161.736H535.465C535.465 161.207 535.602 160.683 535.875 160.163C536.148 159.644 536.54 159.174 537.051 158.755C537.57 158.327 538.19 157.99 538.91 157.743C539.639 157.488 540.451 157.361 541.344 157.361C542.419 157.361 543.367 157.543 544.188 157.907C545.017 158.272 545.664 158.823 546.129 159.562C546.603 160.291 546.84 161.207 546.84 162.31V169.2C546.84 169.693 546.881 170.217 546.963 170.773C547.054 171.329 547.186 171.807 547.359 172.208V172.427H544.721C544.593 172.135 544.493 171.748 544.42 171.265C544.347 170.773 544.311 170.317 544.311 169.898ZM544.748 163.458L544.775 165.236H542.219C541.499 165.236 540.856 165.295 540.291 165.413C539.726 165.523 539.252 165.691 538.869 165.919C538.486 166.147 538.195 166.434 537.994 166.781C537.794 167.118 537.693 167.514 537.693 167.97C537.693 168.435 537.798 168.859 538.008 169.241C538.217 169.624 538.532 169.93 538.951 170.157C539.38 170.376 539.904 170.486 540.523 170.486C541.298 170.486 541.982 170.322 542.574 169.993C543.167 169.665 543.636 169.264 543.982 168.79C544.338 168.316 544.529 167.856 544.557 167.409L545.637 168.626C545.573 169.009 545.4 169.433 545.117 169.898C544.835 170.363 544.456 170.809 543.982 171.238C543.518 171.657 542.962 172.008 542.314 172.29C541.676 172.564 540.956 172.7 540.154 172.7C539.152 172.7 538.272 172.504 537.516 172.113C536.768 171.721 536.185 171.197 535.766 170.54C535.355 169.875 535.15 169.132 535.15 168.312C535.15 167.519 535.305 166.822 535.615 166.22C535.925 165.609 536.372 165.103 536.955 164.702C537.538 164.292 538.24 163.982 539.061 163.773C539.881 163.563 540.797 163.458 541.809 163.458H544.748ZM557.012 157.634V159.575H549.014V157.634H557.012ZM551.721 154.038H554.25V168.763C554.25 169.264 554.327 169.642 554.482 169.898C554.637 170.153 554.838 170.322 555.084 170.404C555.33 170.486 555.594 170.527 555.877 170.527C556.087 170.527 556.305 170.508 556.533 170.472C556.77 170.426 556.948 170.39 557.066 170.363L557.08 172.427C556.88 172.491 556.615 172.55 556.287 172.605C555.968 172.669 555.581 172.7 555.125 172.7C554.505 172.7 553.936 172.577 553.416 172.331C552.896 172.085 552.482 171.675 552.172 171.101C551.871 170.517 551.721 169.734 551.721 168.749V154.038ZM562.727 157.634V172.427H560.184V157.634H562.727ZM559.992 153.71C559.992 153.3 560.115 152.954 560.361 152.671C560.617 152.389 560.99 152.247 561.482 152.247C561.965 152.247 562.335 152.389 562.59 152.671C562.854 152.954 562.986 153.3 562.986 153.71C562.986 154.102 562.854 154.439 562.59 154.722C562.335 154.995 561.965 155.132 561.482 155.132C560.99 155.132 560.617 154.995 560.361 154.722C560.115 154.439 559.992 154.102 559.992 153.71ZM566.117 165.195V164.88C566.117 163.814 566.272 162.825 566.582 161.913C566.892 160.993 567.339 160.195 567.922 159.521C568.505 158.837 569.212 158.309 570.041 157.935C570.87 157.552 571.8 157.361 572.83 157.361C573.869 157.361 574.803 157.552 575.633 157.935C576.471 158.309 577.182 158.837 577.766 159.521C578.358 160.195 578.809 160.993 579.119 161.913C579.429 162.825 579.584 163.814 579.584 164.88V165.195C579.584 166.261 579.429 167.25 579.119 168.161C578.809 169.073 578.358 169.87 577.766 170.554C577.182 171.228 576.476 171.757 575.646 172.14C574.826 172.514 573.896 172.7 572.857 172.7C571.818 172.7 570.884 172.514 570.055 172.14C569.225 171.757 568.514 171.228 567.922 170.554C567.339 169.87 566.892 169.073 566.582 168.161C566.272 167.25 566.117 166.261 566.117 165.195ZM568.646 164.88V165.195C568.646 165.933 568.733 166.63 568.906 167.286C569.079 167.934 569.339 168.508 569.686 169.009C570.041 169.51 570.483 169.907 571.012 170.198C571.54 170.481 572.156 170.622 572.857 170.622C573.55 170.622 574.156 170.481 574.676 170.198C575.204 169.907 575.642 169.51 575.988 169.009C576.335 168.508 576.594 167.934 576.768 167.286C576.95 166.63 577.041 165.933 577.041 165.195V164.88C577.041 164.151 576.95 163.463 576.768 162.816C576.594 162.159 576.33 161.581 575.975 161.079C575.628 160.569 575.191 160.168 574.662 159.876C574.143 159.585 573.532 159.439 572.83 159.439C572.137 159.439 571.527 159.585 570.998 159.876C570.479 160.168 570.041 160.569 569.686 161.079C569.339 161.581 569.079 162.159 568.906 162.816C568.733 163.463 568.646 164.151 568.646 164.88ZM585.285 160.792V172.427H582.756V157.634H585.148L585.285 160.792ZM584.684 164.47L583.631 164.429C583.64 163.417 583.79 162.483 584.082 161.626C584.374 160.76 584.784 160.008 585.312 159.37C585.841 158.732 586.47 158.24 587.199 157.894C587.938 157.538 588.753 157.361 589.646 157.361C590.376 157.361 591.032 157.461 591.615 157.661C592.199 157.853 592.695 158.163 593.105 158.591C593.525 159.019 593.844 159.575 594.062 160.259C594.281 160.934 594.391 161.758 594.391 162.734V172.427H591.848V162.706C591.848 161.932 591.734 161.312 591.506 160.847C591.278 160.373 590.945 160.031 590.508 159.822C590.07 159.603 589.533 159.493 588.895 159.493C588.266 159.493 587.691 159.626 587.172 159.89C586.661 160.154 586.219 160.519 585.846 160.984C585.481 161.448 585.194 161.982 584.984 162.583C584.784 163.176 584.684 163.805 584.684 164.47Z" fill="black"/>
<defs>
<linearGradient id="paint0_linear_125_43" x1="-39.1203" y1="112.734" x2="242.018" y2="64.1547" gradientUnits="userSpaceOnUse">
<stop/>
<stop offset="1"/>
</linearGradient>
<linearGradient id="paint1_linear_125_43" x1="321.137" y1="173.9" x2="139.482" y2="142.497" gradientUnits="userSpaceOnUse">
<stop stop-color="#070707"/>
<stop offset="1"/>
</linearGradient>
<linearGradient id="paint2_linear_125_43" x1="250.966" y1="103.817" x2="559.637" y2="35.6756" gradientUnits="userSpaceOnUse">
<stop/>
<stop offset="1"/>
</linearGradient>
<linearGradient id="paint3_linear_125_43" x1="595.928" y1="115.649" x2="718.068" y2="100.649" gradientUnits="userSpaceOnUse">
<stop/>
<stop offset="1"/>
</linearGradient>
</defs>
</svg>
